Coordinates
version=1
nRows=17
nColumns=34
inDegrees=yes

Units are S.I. units (second, meters, Newtons, ...)
If the header above contains a line with 'inDegrees', this indicates whether rotational values are in degrees (yes) or radians (no).

endheader
time	pelvis_tilt	pelvis_list	pelvis_rotation	pelvis_tx	pelvis_ty	pelvis_tz	hip_flexion_r	hip_adduction_r	hip_rotation_r	knee_angle_r	ankle_angle_r	subtalar_angle_r	mtp_angle_r	hip_flexion_l	hip_adduction_l	hip_rotation_l	knee_angle_l	ankle_angle_l	subtalar_angle_l	mtp_angle_l	lumbar_extension	lumbar_bending	lumbar_rotation	arm_flex_r	arm_add_r	arm_rot_r	elbow_flex_r	pro_sup_r	arm_flex_l	arm_add_l	arm_rot_l	elbow_flex_l	pro_sup_l
      7.01666670	      3.79562946	    -17.13732137	    -14.11978394	      0.88525440	      0.89073669	     -0.58663062	     13.63700325	     13.03826613	     -5.59249509	     32.41375258	     -7.45057514	    -29.45970934	      0.00000000	      2.57807910	    -10.58827024	    -12.07499501	     12.62456655	      3.32231091	    -15.45699706	      0.00000000	    -19.01681703	      6.05029109	      8.46909819	     42.41038759	     13.79372368	     74.52246455	    104.46008560	     92.05758624	     37.13213400	     -7.70822194	     78.40767470	    119.12867416	     78.26534634
      7.03333330	      3.99759464	    -16.60147309	    -13.91648868	      0.88495973	      0.88918521	     -0.58704925	     13.94648821	     12.60470420	     -4.70267082	     32.64525598	     -6.50979762	    -29.75165632	      0.00000000	      3.21040956	    -10.04131140	    -11.41838719	     13.50752880	      4.83072815	    -16.35404294	      0.00000000	    -19.74061793	      5.48917536	      8.31765767	     42.37999589	     13.75002588	     74.50658803	    103.69679360	     91.93768904	     37.57826105	     -7.81121868	     78.91453607	    119.29790322	     77.87780697
      7.05000000	      3.46708793	    -15.96570198	    -13.73149969	      0.88568462	      0.88667489	     -0.58759459	     15.00597337	     11.93748963	     -4.77550284	     32.69376890	     -4.26375138	    -28.62294820	      0.00000000	      4.68572770	     -9.49706642	    -10.50608870	     14.72747925	      5.95155794	    -17.59196683	      0.00000000	    -19.47980221	      5.11862766	      8.27960856	     41.87542941	     13.53603068	     74.41736255	    103.02106021	     91.35886218	     38.17102221	     -7.82535659	     80.34378928	    119.64854490	     75.96427152
      7.06666670	      3.53867624	    -15.40658465	    -13.46458171	      0.88360658	      0.88775249	     -0.58900646	     15.07288815	     11.34911669	     -3.80838751	     31.82463972	     -3.58325798	    -28.02412513	      0.00000000	      5.19077951	     -8.75357660	     -9.86034370	     15.33827217	      7.71768192	    -18.92385824	      0.00000000	    -20.00708230	      4.66468453	      8.07712352	     41.42200913	     13.05694508	     74.43217177	    102.43161897	     91.23473176	     38.38207064	     -8.05731140	     80.38222233	    119.34465689	     75.50028975
      7.08333330	      3.19339281	    -15.00160188	    -13.22918468	      0.88255384	      0.87971034	     -0.58994431	     16.09616438	     10.64930663	     -4.15000453	     31.76849152	     -1.19421949	    -26.19796403	      0.00000000	      6.23265085	     -8.21288379	     -8.95094267	     16.21289024	      9.58809973	    -20.01867605	      0.00000000	    -20.02934944	      4.49200528	      7.84195118	     41.35315715	     12.66174626	     74.53724127	    101.80957310	     90.31784663	     38.49928928	     -8.02320678	     80.95889797	    119.37562544	     72.31129523
      7.10000000	      3.31709621	    -14.81818502	    -13.01288752	      0.88224199	      0.87834918	     -0.59005202	     16.49397434	     10.32944756	     -3.61686809	     31.61401361	     -1.14093091	    -26.16358505	      0.00000000	      6.44802715	     -7.76427629	     -8.47759967	     16.67312846	     11.04290544	    -20.93523183	      0.00000000	    -20.72368692	      4.38385210	      7.57582689	     41.16100334	     12.43860962	     74.77729007	    101.16666712	     90.19674942	     38.47632471	     -7.79130376	     81.40887699	    119.01942657	     71.89948518
      7.11666670	      3.51164376	    -14.74478625	    -12.79292563	      0.88164605	      0.86849093	     -0.58993702	     17.23654190	     10.07423730	     -3.34925486	     32.17082059	     -0.60652321	    -26.55080536	      0.00000000	      6.89344051	     -7.55168833	     -8.13409020	     17.72000832	     12.08824860	    -21.46888783	      0.00000000	    -21.32336720	      4.38750393	      7.57394026	     41.49289655	     12.19651082	     74.60802201	    100.70758774	     90.04422620	     38.83281593	     -7.60197923	     81.55976479	    119.42404038	     71.54009314
      7.13333330	      3.54583844	    -14.39505670	    -12.60171563	      0.87745657	      0.86207706	     -0.59096319	     18.54676542	      9.68001705	     -2.64144498	     33.32945312	      0.67343600	    -26.85236164	      0.00000000	      7.86056152	     -7.14964779	     -7.43625043	     19.33097015	     13.78654342	    -22.59219028	      0.00000000	    -21.70884573	      4.21935942	      7.74814198	     41.92372166	     11.65130606	     74.51532200	    100.67785082	     89.77088623	     39.71764937	     -7.51346593	     81.87850463	    119.93093723	     70.92406837
      7.15000000	      3.21984430	    -13.93512228	    -12.49768454	      0.87794651	      0.85815119	     -0.59207502	     20.14876819	      9.07126345	     -2.24348493	     34.23306161	      2.75144867	    -25.68530739	      0.00000000	      9.45248946	     -6.73064957	     -6.60931728	     21.32490238	     14.32988068	    -23.07324164	      0.00000000	    -21.58880245	      3.90246226	      8.08441623	     41.58932463	     10.99822002	     73.81787073	    101.17436005	     89.01675763	     40.43986592	     -6.96510989	     82.67606128	    119.53775084	     69.09012792
      7.16666670	      3.18295165	    -13.52761450	    -12.42413834	      0.87563845	      0.85322755	     -0.59231805	     21.26566017	      8.50541361	     -1.67834720	     34.27304297	      4.68269351	    -25.50467226	      0.00000000	     10.68991294	     -6.25772486	     -5.78021478	     23.21463029	     15.70322823	    -24.31783057	      0.00000000	    -22.10068133	      3.63472469	      8.12287387	     41.64388907	     10.79978648	     73.73525611	    101.26244348	     88.59416679	     41.11608495	     -6.65425833	     83.08295128	    119.30929676	     67.80500076
      7.18333330	      3.52186153	    -13.04315011	    -12.14233044	      0.87548575	      0.85477817	     -0.59503436	     21.38807033	      7.62827141	     -1.28304473	     33.78934218	      7.02788197	    -23.41197384	      0.00000000	     11.09892463	     -5.47826106	     -5.16395806	     24.23627501	     16.36601536	    -25.01781977	      0.00000000	    -22.83624441	      3.20695520	      8.06876987	     41.37607273	     10.19846878	     73.13426644	    101.03577786	     87.96062639	     41.72597195	     -6.43119545	     83.57426788	    118.05383793	     65.66331390
      7.20000000	      3.87362068	    -12.77530680	    -12.14546376	      0.87814498	      0.85231406	     -0.59567295	     21.40114246	      7.12767612	     -0.82682451	     33.05984551	      7.58427104	    -23.34011314	      0.00000000	     11.24545985	     -5.05619185	     -4.92195174	     25.36392099	     16.68912762	    -25.22958611	      0.00000000	    -23.81348712	      3.04714181	      8.00965111	     40.95417434	     10.05958410	     73.34448666	    100.61733562	     87.89376807	     41.35156924	     -6.42266473	     83.94500709	    117.29271151	     65.40859853
      7.21666670	      4.49258738	    -12.64605375	    -12.01646090	      0.87795872	      0.85107470	     -0.59769044	     21.03872991	      6.53693563	     -0.89481162	     32.21528263	     10.20651805	    -21.24484733	      0.00000000	     11.07952181	     -4.69081919	     -4.70420829	     26.23734189	     16.38603726	    -25.52655310	      0.00000000	    -25.07651662	      2.94342144	      8.28217119	     40.65734843	      9.60611405	     73.34691927	    100.31956548	     87.44201876	     41.56722225	     -6.17264948	     84.59524223	    116.04114173	     64.12446908
      7.23333330	      5.00992934	    -12.54199304	    -11.95893576	      0.87836343	      0.85006051	     -0.59886043	     20.52103390	      6.00790570	     -0.99750573	     30.58368189	     11.76264753	    -19.47706859	      0.00000000	     11.00359018	     -4.32574022	     -4.38986859	     27.08051843	     14.74739879	    -25.47181616	      0.00000000	    -26.16339454	      2.79660780	      8.12602439	     40.11403830	      9.37809826	     73.36791329	     99.60305269	     87.02836879	     41.38871307	     -6.14630129	     85.12380181	    114.47751940	     63.02775611
      7.25000000	      5.63386777	    -12.46604866	    -12.07236657	      0.87678340	      0.84340245	     -0.59664967	     20.46842317	      5.72808273	     -0.98051601	     30.01045124	     13.27991734	    -20.27911796	      0.00000000	     11.22717987	     -4.27882100	     -4.12658885	     28.86123557	     15.42235442	    -26.29478695	      0.00000000	    -27.55888199	      2.51765560	      8.31187324	     40.11426829	      9.11244039	     73.15326893	     99.63594655	     86.86298954	     41.90534544	     -6.32146498	     85.30115171	    114.32612962	     62.67797768
      7.26666670	      5.63705520	    -12.42021741	    -12.13260810	      0.87314274	      0.83727654	     -0.59723466	     21.23179105	      5.57790522	     -0.87217963	     29.68800066	     15.74974685	    -19.46274599	      0.00000000	     12.43763764	     -4.28911918	     -3.59022268	     31.11658206	     15.98983592	    -26.84306281	      0.00000000	    -28.49752681	      2.31906685	      8.64623268	     40.33989976	      8.90296260	     73.13669796	    100.07901216	     86.60852422	     42.70262419	     -5.99069600	     86.00028553	    114.16010365	     62.08568956
      7.28333330	      5.63451960	    -12.57486865	    -12.34613091	      0.87336974	      0.83197311	     -0.59773631	     22.28098073	      5.77527016	     -0.89349938	     29.94470542	     20.21227639	    -16.84557315	      0.00000000	     13.57787834	     -4.44952542	     -2.84455273	     33.55767800	     17.11462085	    -26.49143597	      0.00000000	    -29.25091325	      2.19865094	      8.90853484	     40.32483328	      8.80420766	     72.78262351	    100.65766764	     86.32168381	     43.25819666	     -5.90219981	     86.21285203	    113.72289238	     61.18932900
